<?xml version="1.0" standalone="no"?>
<!DOCTYPE svg PUBLIC "-//W3C//DTD SVG 20010904//EN"
 "http://www.w3.org/TR/2001/REC-SVG-20010904/DTD/svg10.dtd">
<svg version="1.0" xmlns="http://www.w3.org/2000/svg"
 width="200.000000pt" height="200.000000pt" viewBox="0 0 200.000000 200.000000"
 preserveAspectRatio="xMidYMid meet">
<metadata>
Created by potrace 1.14, written by Peter Selinger 2001-2017
</metadata>
<g transform="translate(0.000000,200.000000) scale(0.100000,-0.100000)"
fill="#000000" stroke="none">
<path d="M0 1000 l0 -1000 1000 0 1000 0 0 1000 0 1000 -1000 0 -1000 0 0
-1000z m602 873 c16 -15 18 -36 18 -236 0 -191 -2 -223 -17 -239 -15 -16 -36
-18 -236 -18 -191 0 -223 2 -239 17 -16 15 -18 36 -18 236 0 191 2 223 17 239
15 16 36 18 236 18 191 0 223 -2 239 -17z m210 0 c10 -9 18 -22 18 -29 0 -29
23 -24 55 11 38 41 57 39 89 -11 l18 -26 34 37 c32 35 35 37 56 23 20 -14 23
-25 26 -96 4 -101 18 -118 56 -67 15 19 34 35 42 35 8 0 19 11 24 24 5 14 18
30 29 36 17 8 25 6 41 -10 16 -16 18 -24 10 -41 -6 -11 -22 -24 -36 -29 -20
-8 -24 -16 -24 -52 0 -47 7 -61 32 -71 29 -10 39 -41 22 -65 -11 -17 -25 -22
-58 -22 -23 0 -47 -5 -54 -12 -15 -15 -16 -94 -1 -103 6 -4 26 10 45 30 32 35
35 37 56 23 15 -10 24 -27 26 -49 4 -59 11 -76 31 -82 10 -2 24 -14 31 -26 10
-20 7 -26 -25 -56 -21 -18 -34 -38 -30 -44 7 -12 85 -15 100 -3 6 4 15 16 21
27 6 11 23 26 37 33 15 7 27 18 27 24 0 6 7 20 17 30 13 15 31 18 98 18 85 0
102 -8 118 -52 9 -26 36 -22 47 6 5 14 18 30 29 36 17 8 25 6 41 -10 16 -16
18 -24 10 -41 -6 -11 -22 -24 -36 -29 -13 -5 -24 -16 -24 -24 0 -8 -10 -22
-22 -30 -26 -19 -55 -6 -68 30 -9 23 -14 24 -94 24 -48 0 -88 -5 -91 -10 -13
-20 17 -40 60 -40 42 0 65 -15 78 -52 4 -10 13 -18 20 -18 32 0 46 -34 49
-120 3 -77 5 -85 23 -85 17 0 21 8 25 54 6 66 32 91 68 65 17 -12 22 -25 22
-63 0 -49 -14 -70 -52 -84 -15 -5 -18 -19 -18 -81 0 -79 6 -106 23 -106 6 0
19 -7 29 -17 37 -34 16 -143 -29 -143 -7 0 -18 -11 -23 -24 -5 -14 -19 -30
-30 -36 -18 -10 -26 -6 -55 25 -18 21 -38 34 -44 30 -12 -7 -15 -85 -3 -100 4
-5 16 -15 27 -21 11 -6 26 -23 33 -37 7 -15 19 -27 27 -27 8 0 21 -10 29 -22
19 -26 6 -55 -30 -68 -46 -18 -21 -47 45 -52 56 -4 79 -32 55 -66 -13 -20 -24
-22 -98 -22 -86 0 -103 8 -119 53 -4 9 -13 17 -21 17 -8 0 -27 16 -42 35 -33
44 -54 33 -54 -28 0 -56 -22 -77 -80 -77 -48 0 -69 14 -83 53 -4 9 -12 17 -18
17 -27 0 -49 33 -49 75 0 26 -6 48 -15 55 -17 14 -23 11 -39 -22 -6 -13 -24
-29 -39 -36 -24 -11 -27 -19 -27 -59 0 -71 -16 -83 -115 -83 -85 0 -102 8
-118 53 -4 9 -13 17 -21 17 -8 0 -27 16 -42 35 -32 42 -39 43 -56 8 -7 -15
-24 -33 -38 -40 -13 -6 -27 -21 -32 -32 -11 -31 -41 -43 -66 -25 -20 14 -22
24 -22 133 0 124 5 137 53 154 9 4 17 13 17 20 0 32 34 46 120 49 l85 3 3 43
c4 58 -29 99 -45 54 -14 -38 -35 -52 -83 -52 -48 0 -69 14 -83 53 -4 9 -13 17
-20 17 -26 0 -46 35 -49 85 -2 38 -7 51 -21 53 -10 2 -20 -4 -24 -15 -14 -40
-35 -53 -84 -53 -43 0 -51 4 -75 35 l-27 36 -33 -36 c-29 -32 -36 -35 -54 -25
-12 6 -24 20 -28 31 -5 11 -19 26 -32 32 -14 7 -31 25 -38 40 -16 34 -40 35
-52 3 -5 -14 -18 -30 -29 -36 -17 -8 -25 -6 -41 10 -17 17 -18 24 -10 41 6 11
20 23 31 27 11 5 26 19 32 32 7 14 25 31 40 38 47 23 27 49 -42 54 -56 4 -79
32 -55 66 12 17 25 22 58 22 54 0 68 16 64 72 l-3 43 -50 3 c-65 4 -85 23 -85
80 0 75 13 82 150 82 137 0 147 -6 152 -85 l3 -50 90 0 c77 0 90 2 93 17 2 12
-6 21 -22 27 -13 6 -30 19 -36 30 -15 30 21 66 51 51 11 -6 24 -22 29 -36 13
-32 23 -30 54 10 23 31 32 35 79 38 l52 3 3 52 c2 40 8 56 25 68 35 25 61 0
67 -66 4 -46 8 -54 25 -54 18 0 20 8 23 70 4 82 -3 115 -23 115 -8 0 -26 16
-41 35 -30 39 -42 43 -51 18 -13 -39 -36 -53 -81 -53 -70 0 -82 17 -82 116 0
74 2 85 22 98 34 24 62 1 66 -55 5 -61 34 -92 49 -51 13 37 36 52 78 52 22 0
46 5 53 12 19 19 -6 38 -53 38 -42 0 -65 15 -78 52 -4 12 -20 18 -58 20 -39 2
-55 8 -65 23 -12 18 -11 24 2 43 19 28 97 31 126 5z m1050 0 c16 -15 18 -36
18 -236 0 -191 -2 -223 -17 -239 -15 -16 -36 -18 -236 -18 -191 0 -223 2 -239
17 -16 15 -18 36 -18 236 0 191 2 223 17 239 15 16 36 18 236 18 191 0 223 -2
239 -17z m-1111 -434 c14 -27 -23 -64 -50 -50 -28 16 -33 39 -11 61 22 22 45
17 61 -11z m-149 -826 c16 -15 18 -36 18 -236 0 -191 -2 -223 -17 -239 -15
-16 -36 -18 -236 -18 -191 0 -223 2 -239 17 -16 15 -18 36 -18 236 0 191 2
223 17 239 15 16 36 18 236 18 191 0 223 -2 239 -17z"/>
<path d="M212 1788 c-17 -17 -17 -289 0 -306 17 -17 289 -17 306 0 17 17 17
289 0 306 -8 8 -57 12 -153 12 -96 0 -145 -4 -153 -12z m250 -55 c25 -23 26
-167 1 -195 -23 -25 -167 -26 -195 -1 -25 23 -26 167 -1 195 23 25 167 26 195
1z"/>
<path d="M1052 1578 c-8 -8 -12 -51 -12 -123 0 -96 -3 -114 -18 -128 -10 -10
-24 -17 -30 -17 -18 0 -25 -20 -12 -35 8 -9 30 -15 56 -15 38 0 46 4 54 24 5
13 22 33 39 46 35 24 39 38 14 47 -45 16 -53 33 -53 113 0 81 -14 112 -38 88z"/>
<path d="M837 1304 c-11 -11 -8 -102 3 -109 6 -4 18 -1 26 6 21 17 15 103 -6
107 -9 1 -19 0 -23 -4z"/>
<path d="M1114 1225 c-7 -17 3 -35 20 -35 31 0 45 -35 48 -120 l3 -85 46 -3
c31 -2 50 2 58 12 14 17 7 36 -14 36 -8 0 -21 10 -29 22 -19 26 -6 55 30 68
32 12 31 36 -3 52 -14 7 -31 22 -37 33 -16 30 -27 35 -74 35 -28 0 -45 -5 -48
-15z"/>
<path d="M275 1220 c-4 -7 -3 -16 3 -22 14 -14 45 -2 40 15 -6 16 -34 21 -43
7z"/>
<path d="M344 1159 c-10 -17 23 -46 37 -32 7 7 9 19 6 27 -7 18 -33 21 -43 5z"/>
<path d="M623 1153 c-16 -45 -33 -53 -119 -53 -48 0 -86 -4 -89 -11 -4 -6 10
-26 30 -45 35 -32 37 -35 23 -56 -12 -17 -27 -24 -61 -26 -46 -3 -74 -22 -62
-42 9 -15 228 -13 243 2 18 18 15 27 -12 38 -14 5 -30 18 -36 29 -8 17 -6 25
10 41 16 16 24 18 41 10 11 -6 24 -22 29 -36 5 -13 16 -24 24 -24 8 0 27 -16
42 -35 34 -45 54 -33 54 32 0 32 -4 45 -17 50 -38 13 -53 36 -53 78 0 55 -32
88 -47 48z"/>
<path d="M772 1158 c-19 -19 -15 -97 6 -105 45 -16 52 -33 52 -120 0 -79 1
-84 24 -93 36 -13 49 -42 30 -68 -8 -12 -22 -22 -30 -22 -8 0 -17 -8 -20 -17
-4 -10 -22 -32 -42 -49 -20 -18 -32 -36 -28 -43 4 -6 30 -11 57 -11 42 0 51 3
58 23 14 35 32 45 86 49 38 2 51 7 53 21 2 10 -4 20 -15 24 -44 15 -53 33 -53
109 0 80 -6 104 -25 104 -23 0 -45 36 -45 76 0 43 -6 54 -35 70 -11 6 -26 23
-33 37 -15 30 -22 33 -40 15z"/>
<path d="M1057 1164 c-14 -14 -7 -35 11 -32 9 2 17 10 17 17 0 16 -18 25 -28
15z"/>
<path d="M1324 1085 c-10 -25 6 -35 56 -35 44 0 52 -3 75 -35 l27 -34 48 47
c65 65 57 72 -87 72 -90 0 -115 -3 -119 -15z"/>
<path d="M1052 947 c-19 -22 9 -39 60 -35 35 2 43 7 43 23 0 17 -8 20 -46 23
-30 2 -50 -2 -57 -11z"/>
<path d="M273 874 c-3 -8 -1 -20 6 -27 14 -14 47 15 37 32 -10 16 -36 13 -43
-5z"/>
<path d="M1184 875 c-10 -24 5 -35 50 -35 48 0 72 16 55 37 -16 18 -98 17
-105 -2z"/>
<path d="M1541 876 c-14 -17 -7 -36 13 -36 7 0 20 -8 29 -18 14 -15 17 -40 17
-129 0 -85 3 -113 15 -123 16 -13 35 -6 35 15 0 8 16 26 35 41 l36 27 -36 33
c-32 29 -35 35 -25 55 7 12 21 24 31 26 22 6 32 36 27 84 l-3 34 -81 3 c-62 2
-84 -1 -93 -12z"/>
<path d="M1402 863 c2 -10 10 -18 18 -18 22 0 18 29 -3 33 -14 3 -18 -1 -15
-15z"/>
<path d="M700 805 c-20 -24 1 -37 56 -33 41 3 49 6 49 23 0 17 -8 20 -46 23
-32 2 -50 -2 -59 -13z"/>
<path d="M1050 805 c-13 -16 -6 -35 15 -35 8 0 21 -10 29 -22 19 -26 6 -55
-30 -68 -23 -9 -24 -14 -24 -93 0 -69 -3 -87 -18 -100 -10 -10 -24 -17 -30
-17 -27 0 -21 -24 13 -55 32 -30 35 -37 25 -55 -6 -12 -19 -24 -28 -27 -25
-10 -32 -24 -32 -70 0 -57 16 -63 54 -20 27 32 38 37 81 39 38 2 51 7 53 21 2
10 -4 20 -15 24 -45 16 -53 33 -53 118 0 96 13 115 76 115 22 0 45 5 52 12 13
13 17 146 4 163 -4 6 -16 15 -27 21 -11 6 -26 23 -33 37 -11 23 -19 27 -56 27
-26 0 -48 -6 -56 -15z"/>
<path d="M1465 810 c-4 -7 -3 -16 3 -22 14 -14 45 -2 40 15 -6 16 -34 21 -43
7z"/>
<path d="M562 793 c4 -21 33 -25 33 -3 0 8 -8 16 -18 18 -14 3 -18 -1 -15 -15z"/>
<path d="M1332 668 c-7 -7 -12 -41 -12 -83 0 -42 5 -76 12 -83 16 -16 150 -16
166 0 7 7 12 41 12 83 0 42 -5 76 -12 83 -16 16 -150 16 -166 0z m119 -69 c14
-27 -23 -64 -50 -50 -28 16 -33 39 -11 61 22 22 45 17 61 -11z"/>
<path d="M1191 456 c-7 -8 -11 -34 -9 -58 2 -35 7 -43 23 -43 17 0 20 8 23 46
3 52 -16 81 -37 55z"/>
<path d="M767 393 c-13 -12 -7 -90 8 -103 22 -18 35 -3 35 44 0 49 -22 80 -43
59z"/>
<path d="M1470 375 c0 -8 7 -15 15 -15 8 0 15 7 15 15 0 8 -7 15 -15 15 -8 0
-15 -7 -15 -15z"/>
<path d="M1683 314 c-8 -21 13 -42 28 -27 13 13 5 43 -11 43 -6 0 -13 -7 -17
-16z"/>
<path d="M1394 239 c-8 -14 11 -33 25 -25 6 4 11 14 11 22 0 16 -26 19 -36 3z"/>
<path d="M1472 1788 c-8 -8 -12 -57 -12 -153 0 -96 4 -145 12 -153 17 -17 289
-17 306 0 17 17 17 289 0 306 -8 8 -57 12 -153 12 -96 0 -145 -4 -153 -12z
m250 -55 c25 -23 26 -167 1 -195 -23 -25 -167 -26 -195 -1 -25 23 -26 167 -1
195 23 25 167 26 195 1z"/>
<path d="M212 528 c-17 -17 -17 -289 0 -306 17 -17 289 -17 306 0 17 17 17
289 0 306 -17 17 -289 17 -306 0z m250 -55 c25 -23 26 -167 1 -195 -23 -25
-167 -26 -195 -1 -25 23 -26 167 -1 195 23 25 167 26 195 1z"/>
</g>
</svg>
