<?xml version="1.0" standalone="no"?>
<!DOCTYPE svg PUBLIC "-//W3C//DTD SVG 20010904//EN"
 "http://www.w3.org/TR/2001/REC-SVG-20010904/DTD/svg10.dtd">
<svg version="1.0" xmlns="http://www.w3.org/2000/svg"
 width="460.000000pt" height="460.000000pt" viewBox="0 0 460.000000 460.000000"
 preserveAspectRatio="xMidYMid meet">
<metadata>
Created by potrace 1.14, written by Peter Selinger 2001-2017
</metadata>
<g transform="translate(0.000000,460.000000) scale(0.100000,-0.100000)"
fill="#000000" stroke="none">
<path d="M0 2300 l0 -2300 2300 0 2300 0 0 2300 0 2300 -2300 0 -2300 0 0
-2300z m1600 1400 l0 -700 -700 0 -700 0 0 700 0 700 700 0 700 0 0 -700z
m800 600 l0 -100 100 0 100 0 0 -100 0 -100 100 0 100 0 0 -600 0 -600 100 0
100 0 0 -100 0 -100 -100 0 -100 0 0 -100 0 -100 -100 0 -100 0 0 200 0 200
-100 0 -100 0 0 -100 0 -100 -100 0 -100 0 0 -100 0 -100 100 0 100 0 0 -100
0 -100 100 0 100 0 0 -100 0 -100 -100 0 -100 0 0 -600 0 -600 -300 0 -300 0
0 500 0 500 -200 0 -200 0 0 100 0 100 100 0 100 0 0 100 0 100 -100 0 -100 0
0 100 0 100 100 0 100 0 0 100 0 100 -200 0 -200 0 0 -100 0 -100 -100 0 -100
0 0 -100 0 -100 -100 0 -100 0 0 -100 0 -100 100 0 100 0 0 -100 0 -100 -200
0 -200 0 0 100 0 100 -200 0 -200 0 0 200 0 200 100 0 100 0 0 100 0 100 -100
0 -100 0 0 100 0 100 100 0 100 0 0 -100 0 -100 100 0 100 0 0 -100 0 -100
-100 0 -100 0 0 -100 0 -100 200 0 200 0 0 100 0 100 100 0 100 0 0 100 0 100
-100 0 -100 0 0 100 0 100 800 0 800 0 0 100 0 100 -100 0 -100 0 0 100 0 100
-100 0 -100 0 0 -100 0 -100 -100 0 -100 0 0 100 0 100 100 0 100 0 0 100 0
100 -100 0 -100 0 0 100 0 100 100 0 100 0 0 100 0 100 -100 0 -100 0 0 300 0
300 300 0 300 0 0 -100z m2000 -600 l0 -700 -700 0 -700 0 0 700 0 700 700 0
700 0 0 -700z m-800 -1100 l0 -200 -100 0 -100 0 0 200 0 200 100 0 100 0 0
-200z m800 100 l0 -100 -300 0 -300 0 0 100 0 100 300 0 300 0 0 -100z m0
-600 l0 -300 -100 0 -100 0 0 -100 0 -100 -100 0 -100 0 0 -200 0 -200 100 0
100 0 0 100 0 100 100 0 100 0 0 -100 0 -100 -100 0 -100 0 0 -100 0 -100
-100 0 -100 0 0 100 0 100 -100 0 -100 0 0 -100 0 -100 -200 0 -200 0 0 100 0
100 -200 0 -200 0 0 -100 0 -100 -200 0 -200 0 0 400 0 400 100 0 100 0 0 200
0 200 100 0 100 0 0 -100 0 -100 100 0 100 0 0 100 0 100 100 0 100 0 0 -100
0 -100 -100 0 -100 0 0 -100 0 -100 -200 0 -200 0 0 -300 0 -300 100 0 100 0
0 100 0 100 100 0 100 0 0 100 0 100 100 0 100 0 0 100 0 100 400 0 400 0 0
100 0 100 -200 0 -200 0 0 200 0 200 300 0 300 0 0 -300z m-2800 -1200 l0
-700 -700 0 -700 0 0 700 0 700 700 0 700 0 0 -700z m1400 -200 l0 -100 200 0
200 0 0 100 0 100 200 0 200 0 0 -100 0 -100 100 0 100 0 0 100 0 100 200 0
200 0 0 -200 0 -200 -400 0 -400 0 0 100 0 100 -100 0 -100 0 0 -200 0 -200
-100 0 -100 0 0 100 0 100 -100 0 -100 0 0 -100 0 -100 -200 0 -200 0 0 100 0
100 200 0 200 0 0 100 0 100 -200 0 -200 0 0 100 0 100 200 0 200 0 0 -100z
m-600 -300 l0 -200 -100 0 -100 0 0 100 0 100 -100 0 -100 0 0 -100 0 -100
-100 0 -100 0 0 100 0 100 100 0 100 0 0 100 0 100 200 0 200 0 0 -200z"/>
<path d="M400 3700 l0 -500 500 0 500 0 0 500 0 500 -500 0 -500 0 0 -500z
m800 0 l0 -300 -300 0 -300 0 0 300 0 300 300 0 300 0 0 -300z"/>
<path d="M2000 4000 l0 -200 100 0 100 0 0 -100 0 -100 -100 0 -100 0 0 -100
0 -100 300 0 300 0 0 100 0 100 -100 0 -100 0 0 100 0 100 100 0 100 0 0 100
0 100 -200 0 -200 0 0 100 0 100 -100 0 -100 0 0 -200z"/>
<path d="M2400 3100 l0 -100 100 0 100 0 0 100 0 100 -100 0 -100 0 0 -100z"/>
<path d="M1800 2200 l0 -200 300 0 300 0 0 100 0 100 -200 0 -200 0 0 100 0
100 -100 0 -100 0 0 -200z"/>
<path d="M2000 1300 l0 -300 100 0 100 0 0 300 0 300 -100 0 -100 0 0 -300z"/>
<path d="M3200 3700 l0 -500 500 0 500 0 0 500 0 500 -500 0 -500 0 0 -500z
m800 0 l0 -300 -300 0 -300 0 0 300 0 300 300 0 300 0 0 -300z"/>
<path d="M3600 1500 l0 -100 -100 0 -100 0 0 -100 0 -100 200 0 200 0 0 200 0
200 -100 0 -100 0 0 -100z"/>
<path d="M400 900 l0 -500 500 0 500 0 0 500 0 500 -500 0 -500 0 0 -500z
m800 0 l0 -300 -300 0 -300 0 0 300 0 300 300 0 300 0 0 -300z"/>
</g>
</svg>
