<svg version="1.2" xmlns="http://www.w3.org/2000/svg" viewBox="0 0 1920 727" width="1920" height="727">
	<title>image</title>
	<style>
		.s0 { fill: #494161 } 
	</style>
	<path id="Path 0" fill-rule="evenodd" class="s0" d="m1115.3 0.1c132.9-0.1 186.4 0.3 191.4 1.4 5 1.1 8.3 2.8 11.8 6.3 2.6 2.6 5.5 7.2 6.3 10.1 1 3.7 1.5 40.2 1.5 122 0 98.8-0.3 117.3-1.9 121.6-1.1 2.7-3.5 6-5.4 7.3-1.8 1.2-5.7 2.3-8.7 2.3-2.9 0-6.8-1.1-8.7-2.3-1.8-1.3-4.2-4.6-5.3-7.3-1.6-4.2-1.9-21.2-1.9-108.4 0-61.6-0.5-105.2-1.3-107.9-0.7-2.6-2.9-6.3-5-8.3-2.7-2.8-5.8-4-12.3-5.1-5.7-0.9-62.3-1.2-166.1-1-155.6 0.4-157.6 0.4-162.2 3.1-2.5 1.5-5.7 4.8-6.9 7.3-2.2 4.3-2.4 12.1-2.4 106.3 0.1 65.1-0.4 104.3-1.3 109-1 4.9-2.6 8.5-5 10.9-2 2.1-5.3 4-7.3 4.4-2 0.3-5.6-0.3-8-1.3-2.3-1.1-5.5-4-6.9-6.4-2.6-4.2-2.7-6.6-2.7-123.9 0-90.9 0.4-120.7 1.6-124.3 0.9-2.5 3.5-6.4 5.8-8.6 2.3-2.2 6.9-4.7 10.3-5.6 4.6-1.1 53.3-1.6 190.6-1.6zm-1075.8 291c13.3 0 27.4 0.6 31.2 1.4 3.9 0.8 11.8 3.7 17.6 6.4 5.9 2.7 13.3 7.3 16.5 10.1 3.3 2.9 7.8 8.3 10.1 11.9 2.4 3.7 5.6 10.3 7.3 14.6 1.8 5.1 3.2 12.5 3.7 20 0.4 6.9 0 15.8-0.9 21.2-0.9 5.2-3.5 13.2-5.7 18-2.6 5.4-7.1 11.6-12.2 16.7-4.7 4.7-11.6 9.9-16.4 12.3-4.6 2.3-12.1 5.2-16.6 6.5-6.5 1.8-14 2.3-34.3 2.3-22.2 0.1-26.5-0.3-30.2-2.3-2.4-1.2-5.4-4.2-6.6-6.6-2.1-3.9-2.4-9.9-2.8-57.5-0.3-34.1 0.1-55.5 1-59.8 0.8-3.7 2.7-7.9 4.4-9.5 1.6-1.6 4.5-3.6 6.3-4.3 1.9-0.7 14.3-1.3 27.6-1.4zm-1.9 40.8c-1.2 3.1-1.8 11.9-1.7 30.6 0 22.3 0.3 26.9 2.3 30.9 1.3 2.6 4.3 5.6 7 6.9 2.5 1.3 7 2.4 9.9 2.4 2.9 0 8.5-0.9 12.3-2 5.1-1.5 8.7-3.8 13.6-8.7 4.9-4.9 7.2-8.5 8.7-13.6 1.1-3.8 2-10.9 2-15.6 0-4.8-0.9-11.6-1.9-15.3-1.1-3.6-3.9-9.3-6.3-12.6-2.9-3.9-7.1-7.3-11.8-9.7-5.8-2.9-9.1-3.6-16-3.6-7.1 0-9.5 0.6-12.6 3-2 1.6-4.5 4.9-5.5 7.3zm1825.6-40.8c8.8 0 16.9 0.7 21.9 2 4.4 1.1 12.1 4.3 17.2 7 5 2.7 10.9 6.8 12.9 9.2 2.1 2.4 4.2 5.7 4.6 7.3 0.5 1.7 0 4.8-1 6.9-1 2.2-3.9 5.1-6.4 6.6-2.6 1.5-7 2.6-10 2.6-3.3 0-9.6-2-16.6-5.2-10.3-4.8-12.3-5.2-22.6-5.2-8.7 0-12.5 0.6-16.5 2.6-2.9 1.5-7.9 5.1-11.1 8-3.2 2.9-7.4 8.6-9.4 12.6-2.6 5.6-3.4 9.3-3.4 16 0 5.9 1 10.6 3 15.2 1.6 3.7 5.5 9.3 8.6 12.5 3 3.1 8.5 7.3 12.2 9.2 5.6 3 8.3 3.5 17.3 3.5 9.5 0 11.7-0.5 21.2-5 7-3.4 12.7-5.2 16.6-5.3 3.9-0.1 7.7 0.8 10.7 2.5 2.5 1.5 5.4 4.3 6.3 6.3 1 2.1 1.3 5.1 0.7 7.2-0.5 2.1-2.9 5.6-5.3 8-2.4 2.4-7.8 6.1-12 8.2-4.2 2.1-11.2 4.9-15.6 6.2-5.6 1.6-12.5 2.3-22.6 2.3-9.6 0-17.7-0.8-23.3-2.3-4.7-1.2-12.1-4.1-16.5-6.5-4.5-2.5-11.4-8.1-16.6-13.5-4.8-5.2-10.3-12.6-12.2-16.7-2-4-4.2-10.4-5-14.2-0.8-3.9-1.5-11.9-1.5-18 0-6 0.9-14.5 2.1-18.9 1.1-4.4 3.6-11 5.6-14.6 2-3.6 7.5-10.6 12.2-15.4 6-6 11.6-10.2 18-13.3 5.1-2.5 12.3-5.2 15.9-6.1 3.7-0.8 12.9-1.6 20.6-1.7zm-1088.4 189.7c1.8 0.3 4.6 1.4 6.3 2.4 1.6 1 4.8 4.4 7.1 7.5 2.2 3.1 6.8 11 10.1 17.6 3.4 6.6 10.3 18.9 15.4 27.3 5.2 8.4 18.8 31.4 30.4 51.1 11.6 19.8 24.2 41.8 28 48.9 3.8 7.2 11.1 20.4 16.1 29.3 5 8.9 11.3 19.4 14 23.4 2.6 3.9 6.3 8.1 8.1 9.3 2.3 1.5 6.5 2.1 26.8 2.1l4 4.6c3.2 3.6 3.9 5.4 3.2 8-0.5 1.8-2.3 4.7-3.8 6.4-1.6 1.6-4.7 3.3-6.9 3.7-2.2 0.4-7.6-0.2-20-3.7l-19.9 7.6h-121.6c-113 0-121.9-0.2-126.6-2.4-2.7-1.2-6.2-4.2-7.6-6.6-1.5-2.4-2.7-6.3-2.7-8.6 0-2.4 0.8-6 1.7-8 0.9-2 4.5-8.7 8.1-15 3.5-6.2 8.8-16 11.8-21.9 2.9-5.8 9.7-18.4 15.1-27.9 5.6-9.7 10.3-19.7 10.9-22.9 0.9-5.6 0.9-5.6-7.5-13.3-8-7.2-8.4-8-8.5-13.6 0-4.8 0.7-6.5 3.2-8.5 2.1-1.6 4.4-2.2 7.1-1.7 2.2 0.4 6.7 2 10 3.4 3.2 1.5 7.3 2.7 8.9 2.7 1.7 0.1 5.2-1.9 7.8-4.2 2.7-2.4 8.4-10.3 12.8-17.7 4.4-7.3 13.7-23.7 20.6-36.5 7-12.8 14.8-26.5 17.5-30.4 2.6-4 6.3-8.2 8.1-9.5 1.8-1.3 4.5-2.6 6-2.9 1.4-0.4 4.1-0.4 6 0zm100.2-386.5c3.6 0 5.4 0.9 7.5 3.7 1.4 2 2.7 4.5 2.7 5.6 0 1.1-1.3 3.7-2.7 5.7-2.1 2.8-3.8 3.6-7.7 3.7-2.8 0-6.4-0.9-8-2-2-1.4-3-3.3-2.9-6.1 0-2.4 1.3-5.3 3.2-7.3 2.2-2.2 4.7-3.3 7.9-3.3zm-41.1 6.7c2.2 0 5.5 1 7.3 2.2 1.8 1.3 3.8 2.9 4.3 3.7 0.6 0.8 1 2.9 1.1 4.7 0 2-1.5 4.8-3.7 7-2 2-5.2 3.9-7 4.2-1.8 0.3-5.3-0.3-7.6-1.3-2.4-1.1-5-3.3-5.9-4.9-1.1-2.3-1.1-4 0.4-7.5 1-2.5 3-5.3 4.5-6.3 1.4-1 4.4-1.8 6.6-1.8zm-36.9 18.6c1.9 0.3 4.6 2.1 6 4 1.6 2.2 2.2 4.4 1.7 6.6-0.4 1.8-2.4 4.8-4.4 6.5-2.8 2.5-4.8 3.1-9 2.7-3-0.3-6.4-1.4-7.7-2.5-1.3-1.1-2.3-3.7-2.2-5.7 0-2 1.5-5.4 3.4-7.5 1.8-2.2 4.5-4.1 6-4.4 1.5-0.2 4.3-0.1 6.2 0.3zm-36.7 15.9c2.8 0 6.5 0.7 8.2 1.6 1.6 0.8 3.4 2.2 3.9 3 0.6 0.8 0.7 3.2 0.2 5.4-0.4 2.2-1.6 5.6-2.6 7.6-1.1 2.1-3.7 4.6-5.9 5.7-2.2 1.1-5.7 2-7.9 2-2.2 0-5.6-0.8-7.4-1.7-1.9-0.9-3.8-2.8-4.2-4.3-0.4-1.5 0-4.7 0.7-7.3 0.8-2.6 3.3-6.3 5.6-8.3 3-2.7 5.6-3.7 9.4-3.7zm-32.2 25.2q6.1 0 8.1 2.2c1.5 1.6 1.8 3.7 1.1 8.3-0.6 3.7-2.2 7.4-4 9.2-1.7 1.7-4.8 3.4-7 3.8-2.2 0.5-5.4 0.1-7-0.7-1.7-0.8-3.7-2.8-4.5-4.4-0.8-1.7-1.1-5-0.6-7.3 0.4-2.4 2.3-5.9 4.3-7.7 2.7-2.5 5-3.3 9.6-3.4zm-32.2 30.7c2.8 0 5.8 0.4 6.7 1 0.8 0.5 2.1 2.4 2.8 4.3 0.6 1.8 0.7 5.1 0.1 7.3-0.5 2.2-2.1 5-3.4 6.3-1.3 1.3-5.1 2.8-8.4 3.2-5.3 0.7-6.3 0.5-8.3-2.4-1.3-1.7-2.3-5.1-2.2-7.6 0-2.9 1.3-5.7 3.9-8.3 2.8-2.9 4.9-3.8 8.8-3.8zm-24.4 30.6c2.4 0 5.3 1 6.6 2.3 1.7 1.6 2.4 4.3 2.4 8.9 0 4.8-0.8 7.5-2.7 9.7-1.5 1.6-4.4 3.6-6.4 4.3-2 0.8-5 1.1-6.6 0.7-1.8-0.4-3.8-2.6-5-5.4-1.4-3.2-1.7-6.2-1-9.5 0.6-2.9 2.6-6.1 4.8-8 2.2-1.8 5.5-3.1 7.9-3zm248.1 68.3c10.4 0.2 13.6 0.7 17.6 3.1 3.5 2.1 5.4 4.4 6.3 7.6q1.4 4.6 0 9.3c-0.9 3.2-2.7 5.4-5.6 7-3.4 1.8-9.1 2.4-27.6 3-18.4 0.6-24.1 1.2-27.6 3-2.3 1.3-5.3 3.9-6.6 5.9-2 3.1-2.3 7.2-2.3 32.2 0 25.2 0.3 29.1 2.4 32.6 1.3 2.2 3.7 4.9 5.3 6 2.2 1.4 8.9 2.1 26.8 2.7 20.7 0.6 24.6 1.1 28.6 3.4 2.6 1.5 5.5 4.4 6.5 6.6 1.3 2.8 1.5 5.2 0.7 8.5q-1.2 4.6-5.9 7.7c-3.2 2-7.5 3.2-13.9 3.8-5.1 0.4-23.1 0.6-39.9 0.3-27.3-0.4-31.1-0.8-35.6-3.1-3-1.6-6-4.5-7.3-7.3-2-4.1-2.3-10.8-2.3-61.1 0-51.3 0.2-56.9 2.3-60.8 1.3-2.4 4-5.4 6-6.7 3-1.9 8.1-2.4 31.5-3.1 15.4-0.5 33.7-0.7 40.6-0.6zm-640.5 1.2c13.2 0.4 18.2 1.1 24.5 3.6 4.4 1.6 10 5 12.3 7.4 3.5 3.6 4.3 5.5 4.3 10.1 0 3.4-0.9 6.8-2.3 8.5-1.3 1.6-3.6 3.5-5.3 4.3-1.6 0.8-4.6 1.5-6.6 1.5-2 0-7.9-1.2-13-2.6-5.1-1.5-11.5-2.7-14.3-2.7-2.7 0-6.8 0.9-8.9 2-2.5 1.2-4.3 3.3-4.8 5.6-0.5 2.3 0 4.8 1.3 6.7 1.2 1.6 4.1 4.2 6.4 5.6 2.4 1.5 9.7 4.8 16.3 7.3 6.6 2.6 14.8 6.5 18.3 8.7 3.5 2.2 7.9 5.6 9.8 7.6 1.9 2 5.1 7 6.9 11 2.4 5.2 3.4 9.5 3.4 15.3 0 5.7-0.9 9.8-3.2 14.6-1.7 3.6-5.9 9.3-9.2 12.7-3.3 3.3-8.7 7.3-12 8.9-3.3 1.6-10.5 3.5-16 4.3-5.6 0.8-14.6 1.1-20.6 0.6-5.8-0.5-15.1-2.3-20.6-4-5.5-1.7-12.9-5.1-16.6-7.5-3.6-2.4-7.3-5.9-8.2-7.7-1-1.8-1.7-5.3-1.7-7.6 0-3.2 1.2-5.6 4.5-9 3.2-3.4 5.6-4.7 8.6-4.7 2.3 0 9.4 2.2 15.8 4.8 6.6 2.8 14.7 5.1 18.9 5.4 5.4 0.5 8.5 0 11.9-1.8 2.7-1.4 5.3-4 6-6.1 1-2.9 0.9-4.6-0.7-7.3-1.1-2-3.8-4.8-6-6.3-2.1-1.4-8.7-4.4-14.5-6.4-5.9-2.1-14.1-5.6-18.3-7.7-4.2-2.1-9.8-6-12.5-8.8-2.7-2.7-6.1-7.7-7.6-11-1.8-4-2.6-8.7-2.6-14.6 0-5.6 1-10.7 2.7-14.6 1.4-3.3 4.6-8.3 7.1-11.1 2.5-2.9 7-6.6 9.9-8.3 2.9-1.7 8.6-4 12.6-5.1 5.4-1.5 11.8-1.9 24-1.6zm305 0.1c12.7 0.3 17.7 1.1 24.5 3.6 4.8 1.7 12.2 5.2 16.5 7.8 4.3 2.6 10.2 7.4 13.3 10.7 3 3.3 7.5 9.9 10 14.6 2.5 4.7 5.3 11.6 6.3 15.2 1 3.7 1.8 11.8 1.8 18 0 6.2-0.9 14.8-2.1 19.2-1.1 4.4-3.7 11-5.6 14.7-2 3.6-7.8 10.8-12.9 16-5.1 5.2-12.3 11-16 12.9-3.6 1.8-10.2 4.4-14.6 5.7-5.5 1.6-12.6 2.4-23.2 2.4-8.5 0-18.6-0.8-22.6-1.7-4-1-10.9-3.6-15.3-5.8-4.9-2.4-11.7-7.7-17.4-13.5q-9.4-9.4-13.6-18c-2.5-5.2-4.8-13-5.8-19.3-1.2-7.8-1.3-13.7-0.3-21.9 0.9-7.6 2.7-14.2 5.4-20 2.5-5.5 7.2-12.1 13.2-18.4 5-5.4 11.6-11.2 14.5-12.9 2.9-1.7 8-4.1 11.3-5.3 3.3-1.1 8.4-2.6 11.3-3.3 2.9-0.6 12.5-1 21.3-0.7zm-32.9 43.3c-2.1 2.5-5.1 7.3-6.7 10.6-2.2 4.5-2.9 8.4-2.9 16 0 7.6 0.7 11.5 3 16.6 1.7 3.6 5.3 8.9 8 11.7 2.7 2.8 7.9 6.7 11.5 8.6 5.6 3 8.4 3.6 17.3 3.6 8.8 0 11.9-0.6 17.9-3.5 4.3-2.1 9.7-6.3 13-10 3.2-3.6 6.7-9.4 7.9-13.1 1.2-3.6 2.2-10.2 2.2-14.6-0.1-5.2-1.1-10.3-3-14.6-1.6-3.7-5.4-9.3-8.5-12.5-3.1-3.2-8.6-7.2-12.2-8.9-5.2-2.5-8.9-3.2-16.7-3.2-8.6 0-11.1 0.6-18.5 4.3-4.7 2.4-10.2 6.4-12.3 9zm153.8-42.8c2.2 0.3 5.5 1.4 7.3 2.3 1.8 1 5.5 4 8.2 6.8 2.6 2.8 9.1 11.7 14.4 19.7 5.3 8.1 11.7 18.5 14.3 23.3 2.6 4.7 9.7 14.9 15.7 22.6 5.9 7.7 12.9 17.2 15.5 21.2 2.5 4.1 7.1 12.1 10 18 2.9 5.8 5.8 12.7 6.3 15.3 0.7 3.8 0.3 5.1-2 7.3-2.1 1.9-4.8 2.6-9.3 2.6-5 0-7.7-0.9-12.2-4-4.2-2.9-10-10.3-21.3-27.2-8.6-12.8-17.1-24.6-19-26.2-1.8-1.7-4.8-3-6.6-3-2.2 0-4.2 1.2-5.7 3.6-1.9 2.9-2.5 7.7-3 24.2-0.6 15.9-1.3 21.7-3 25-1.4 2.6-4.3 5.2-7.3 6.4-3.1 1.4-6.7 1.9-9.6 1.4-2.6-0.5-6.3-2.5-8.4-4.5-2.9-2.9-3.9-5.6-5-13.6-0.9-6.1-1.3-29.1-1-59.1 0.4-42.3 0.7-49.8 2.6-53.2 1.2-2.2 3.2-4.9 4.6-6 1.3-1.1 4.2-2.3 6.4-2.8 2.3-0.4 5.9-0.5 8.1-0.1zm337.9-1c7.5 0 16.8 0.6 20.6 1.4 3.8 0.8 10 2.9 13.6 4.5 3.7 1.7 8.6 4.9 11 7.2 3.4 3.3 4.3 5.2 4.3 9.4 0 4.4-0.8 6-4.3 9.1-2.4 2-6.4 4.1-9 4.6-3.3 0.7-7.9 0-15.9-2.4-6.6-1.9-14.7-3.3-19.3-3.3-4.4 0-10.7 0.8-14 1.9-3.3 1.1-8.9 4.6-12.6 7.8-3.6 3.2-8.1 8.8-10 12.4-2.8 5.5-3.3 8.3-3.3 18.4 0.1 9.8 0.6 13 3 17.6 1.7 3.1 5.2 7.9 8 10.7 2.7 2.8 7.7 6.4 10.9 8 3.3 1.6 9.3 3.3 13.3 3.8 4.1 0.4 9.9 0.1 13-0.7 3.1-0.8 7.4-3 9.6-4.8 2.8-2.4 4-4.5 4-7.3 0-2.9-1.3-5.2-4.7-8.3-2.7-2.4-5.6-6-6.7-8-1-2-1.9-5.5-1.9-7.6 0-2.3 1.4-5.6 3.1-7.7 2.1-2.4 5.6-4.3 10.3-5.5 4.7-1.2 11.2-1.6 18.5-1.2 7.3 0.4 13.1 1.5 16.4 3.2 3.1 1.6 5.9 4.3 7.2 7.2 1.7 3.4 2.2 8.1 2.2 17.9-0.1 11-0.7 14.5-3.3 20.5-2.1 4.7-5.7 9.5-10.5 13.8-4 3.6-9.7 7.9-12.6 9.6-3 1.7-9.2 4.4-14 6-7 2.4-11.7 2.9-25.2 3-12.1 0-18.8-0.6-24.6-2.3-4.4-1.3-11.5-4.2-15.8-6.5-4.7-2.5-11.3-7.9-16.6-13.5-5-5.4-10.2-12.7-12.4-17.3-2-4.4-4.3-11.3-5.1-15.3-0.7-4-1.3-11.3-1.3-16.3 0-4.9 0.7-12.1 1.5-15.9 0.8-3.9 3.3-10.9 5.6-15.6 2.6-5.3 7.5-11.9 12.8-17.4 5.3-5.4 11.9-10.4 17-13 4.5-2.3 11.7-5 15.9-6.1 4.2-1 13.8-1.9 21.3-2zm135.2 0c18.2 0 27.7 0.5 33.9 2 4.8 1.1 11 3.4 14 5.1 2.9 1.7 7.8 6 11 9.6 3.1 3.6 6.9 9.8 8.4 13.8 2.2 5.9 2.6 9.6 2.2 19.3-0.4 8.6-1.4 13.8-3.5 18.6-1.7 3.6-5.5 9.9-8.6 13.9-3.1 4-5.9 9-6.3 11.3-0.4 2.2-0.2 6.1 0.5 8.7 0.7 2.5 3.4 8.2 6 12.6 2.5 4.4 4.9 10.1 5.3 12.6 0.3 2.6-0.1 6-0.9 7.7-1 1.8-3.6 3.5-7.2 4.4-4.2 1.2-7.1 1.1-11.6 0-3.3-0.9-7.7-3.2-9.7-5.2-2.1-2-7-8.9-10.8-15.5-3.9-6.6-8.9-13.6-11.2-15.6-2.3-2.1-5.4-3.7-6.8-3.7-1.5 0-3.9 0.6-5.4 1.3-1.4 0.8-3.2 2.6-3.9 4-0.8 1.5-2 7.9-2.7 14.3-0.7 6.4-2.2 13-3.3 14.6-1.1 1.7-4 4-6.3 5.2-3 1.4-6 1.9-9.7 1.3-2.9-0.4-6.6-2.1-8.3-3.8-1.7-1.7-3.6-4.5-4.3-6.3-0.9-2.1-1.3-24.6-1-61.4 0.3-56.5 0.4-58.1 3.1-61.8 1.6-2.1 4.8-4.5 7.3-5.3 2.9-1 13.8-1.6 29.8-1.7zm1 32.9c-1.6 0.9-4 3.5-5.1 5.9-1.2 2.4-2.2 7-2.2 10.3 0 3.3 1 7.9 2.2 10.3 1.1 2.4 3.9 5.2 6.1 6.3 2.2 1.1 6.5 2 9.6 2 3.3 0 8.2-1.2 11.6-3 3.2-1.6 7.1-4.7 8.6-6.7 1.9-2.6 2.8-5.8 2.8-10.1 0-3.7-1-7.7-2.4-9.8-1.2-2-4.2-4.4-6.6-5.4-2.4-1-6.4-2.2-9-2.6-2.5-0.3-6.4-0.2-8.6 0.3-2.2 0.5-5.3 1.7-7 2.5zm160.5-32.9c1.8-0.1 5.4 0.6 8 1.4 2.5 0.9 6.3 3.1 8.4 5 2.1 1.9 4.7 5.3 5.8 7.5 1.2 2.2 11.3 27 22.6 55.1 11.2 28.2 20.8 53.9 21.2 57.2 0.7 5.1 0.3 6.5-2.6 9.9-3 3.6-4.2 4-11.1 4-5.9 0-8.8-0.7-12.1-3-2.4-1.6-5.6-5.5-7.2-8.6-1.6-3.1-6.9-16.4-11.8-29.6-4.9-13.1-10.2-26.6-11.9-29.9-1.6-3.3-4-7-5.1-8.3-1.2-1.3-3.7-2.4-5.5-2.4-1.9 0-4.6 1.4-6.2 3.1-1.6 1.6-3.9 5.1-5.2 7.6-1.3 2.6-6.3 15.5-11.2 28.6-5 13.2-10 26-11.3 28.6-1.3 2.5-3.9 6.3-5.8 8.3-2 2.1-5.6 4.4-8.2 5.2-2.5 0.7-6.6 1-9 0.6-2.4-0.5-5.5-2.4-7.1-4.5-2.2-2.9-2.6-4.8-2-9.6 0.4-3.3 9.9-28.7 21.2-56.5 11.2-27.8 21.4-52.3 22.5-54.5 1.2-2.2 3.8-5.6 5.9-7.6 2-2 6.1-4.6 9-5.6 3-1.1 6.9-2 8.7-2zm134.2-0.1c12.8 0 26.6 0.6 30.6 1.4 4 0.8 10.8 3 15.1 5 4.9 2.2 10 6 13.3 9.7 3 3.3 6.5 9 7.9 12.6 1.3 3.6 2.7 10.1 3.1 14.5 0.5 4.7 0.1 11-0.9 15.3-0.9 4-3.2 10.2-5.1 13.8-1.9 3.6-5.6 8.3-8.2 10.5-2.5 2.3-7.6 5.5-11.3 7.2-4.9 2.2-10.7 3.4-22.6 4.3-10.2 0.9-17 2-18.9 3.4-1.6 1.1-3.9 3.8-5 6-1.1 2.2-2.5 8.9-3.1 14.9-0.6 6.1-1.8 12.3-2.6 14-0.9 1.6-3.5 4.2-5.9 5.6-2.4 1.5-6.1 2.7-8.3 2.7-2.2 0-5.9-1.2-8.3-2.7-2.4-1.4-5.2-4.7-6.3-7.3-1.7-3.9-2-13.8-2-60.4 0-50.4 0.2-56.3 2.3-60.7 1.6-3.4 4-5.7 7.6-7.3 4.5-2 9.2-2.4 28.6-2.5zm-2 38.6c-1.1 2.2-2 6.9-2 10.6 0 3.7 0.9 8.4 2 10.6 1.1 2.2 3.8 4.9 6 6 2.2 1.1 6.5 2 9.6 2 3.3 0 8.2-1.2 11.6-3 3.2-1.6 7.1-4.7 8.6-6.7 1.8-2.5 2.7-5.7 2.7-9.3-0.1-3.3-1.2-7.2-2.8-9.6-1.5-2.2-4.9-5-7.6-6.3-2.8-1.3-7.8-2.3-11.8-2.3-3.8 0.1-8.6 1-10.6 2-2 1.1-4.6 3.8-5.7 6zm-1302.1-37.2c3.2 0 7.3 0.8 9.3 1.8 2.1 1 4.7 4 6 6.6 2.1 4.4 2.4 10.2 2.4 60.7 0 46.6-0.4 56.5-2 60.4-1.1 2.6-4 5.9-6.4 7.3-2.3 1.5-6.4 2.7-8.9 2.7-2.6 0-6.6-1.2-9-2.7-2.4-1.4-5.2-4.7-6.3-7.3-1.7-3.9-2-13.7-2-59.8 0-49.5 0.2-55.7 2.3-60.6 1.3-3 3.8-6.3 5.7-7.3 1.8-0.9 5.8-1.8 8.9-1.8zm202.7-0.1c5 0.1 7.2 0.8 10.4 3.7 2.2 2 4.7 5.8 5.5 8.3 0.9 3 1.4 24.1 1.3 57.8 0 40.6-0.4 54.4-1.8 58.5-1.1 3.4-3.4 6.3-6.4 8.3-2.6 1.7-6.5 3-8.7 3-2.1 0-5.4-0.8-7.2-1.7-1.8-0.9-4.7-3.7-9.4-10.9v-56.8c0-43.7 0.4-57.8 1.8-61.2 0.9-2.3 3.2-5.3 5-6.6 2-1.5 5.6-2.4 9.5-2.4zm90.4 0.1c2.7 0 6.6 0.8 8.6 1.8 2 1 4.7 4 6 6.6 2.1 4.4 2.3 10.2 2.3 60.7 0 46.6-0.3 56.5-2 60.4-1.1 2.6-3.9 5.9-6.3 7.3-2.4 1.5-6.1 2.7-8.3 2.7-2.2 0-5.9-1.2-8.3-2.7-2.4-1.4-5-4-5.9-5.6-0.9-1.7-1.9-9.9-2.4-18.3-0.6-11.5-1.4-16.2-3.3-19.2-1.4-2.2-3.4-4.8-4.6-5.6-1.1-0.9-6.2-2.6-11.4-3.7-5.1-1.1-10.9-3.2-12.9-4.7-3.1-2.3-3.6-3.5-3.3-8.3 0.2-4.7 1-6 4.9-8.6 2.6-1.7 7.4-3.3 10.7-3.7 3.3-0.4 8-2 10.6-3.7 2.6-1.7 5.5-4.8 6.5-7 1.1-2.4 2.2-10.8 2.7-21.2 0.7-13.1 1.5-18.1 3.2-20.5 1.2-1.8 3.6-4.1 5.2-5 1.7-0.9 5.2-1.7 8-1.7zm329.6 0c2 0 5.3 0.8 7.3 1.8 2 1 4.5 3.5 5.6 5.5 1.7 3.1 2 10.6 2 43.5 0 39.6 0 39.8-3 42.3-2.3 2-3.6 2.3-5.9 1.2-1.7-0.7-5.2-4.2-7.9-7.6-2.7-3.5-6.6-9.9-8.7-14.3-3.6-7.7-3.7-8.8-4.2-33.2-0.4-22.5-0.2-25.9 2-30.5 1.4-2.8 4-5.9 5.8-6.9 1.8-0.9 5-1.8 7-1.8zm793.4-0.1c4.8 0.1 7.3 0.9 10.3 3.4 2.2 1.8 4.6 5.5 5.3 8.3 0.8 2.9 1.3 27.3 1.3 58.8 0 50.8-0.2 54.1-2.7 59.5-1.9 4.1-3.9 6.2-7.6 7.7-3.1 1.4-6.7 1.9-9.6 1.4-2.6-0.5-6.3-2.5-8.3-4.5-3-2.9-4-5.6-5.1-13.6-0.9-6.1-1.3-29.1-1-59.1 0.4-43.7 0.7-49.7 2.8-53.5 1.2-2.4 3.6-5.3 5.3-6.4 1.6-1.1 5.8-2 9.3-2zm90.4 0.1c2.7 0 6.6 0.8 8.6 1.8 2.2 1 4.6 4 6 7.3 2.1 4.9 2.3 11.1 2.3 60.6 0 46.1-0.3 55.9-2 59.8-1.1 2.6-3.9 5.9-6.3 7.4-3.3 2.1-5.7 2.6-10.3 2.1-3.3-0.4-7.1-1.8-8.5-3.1-1.4-1.3-3.3-4.3-4.3-6.7-1-2.4-1.8-8.5-1.8-13.6 0-5.1-0.6-12.2-1.4-15.6-0.8-3.9-2.7-7.7-4.9-9.9-2.5-2.4-6.6-4.3-12.3-5.7-4.8-1.1-10.2-3.1-12-4.5-2.1-1.6-3.4-4-3.6-6.6-0.3-3.1 0.6-5.3 3.3-8.1 2.1-2.1 6.2-4.4 9.6-5.3 3.3-0.8 8.1-2.5 10.6-3.8 2.5-1.3 5.8-4.4 7.2-7 2.1-3.7 2.8-8.1 3.5-21.9 0.4-9.5 1.5-18.6 2.4-20.3 0.8-1.6 3.2-3.8 5.2-4.9 2-1.1 5.9-2 8.7-2zm65.1-0.1c5.3 0.1 7 0.7 10.8 4.4 3.3 3.1 4.7 5.9 5.4 10.3 0.5 3.3 0.7 29.9 0.5 59.1-0.4 47.6-0.7 53.6-2.8 57.5-1.3 2.5-4.3 5.2-6.9 6.3-2.6 1.1-5.9 2-7.4 2-1.4 0-4.7-1-7.3-2.3-2.9-1.4-5.7-4.2-7-7-2-4.1-2.3-10.8-2.3-61.1 0-51.3 0.2-56.9 2.4-60.8 1.2-2.4 3.6-5.3 5.3-6.4 1.6-1.1 5.8-2 9.3-2zm-826.3 54.6c2.2 0 6.4 0.6 9.3 1.5 2.9 0.8 6.6 2.9 8.3 4.6 2 2.1 3 4.8 3 8.1 0 2.8-0.9 6.4-2 8-1.1 1.7-3.8 3.9-6 5-2.3 1.1-7.6 2-12.6 2-4.8 0-10.8-0.9-13.3-2q-4.7-2-6.7-6.7c-1.7-3.9-1.7-5.2-0.2-8.9 1-2.4 2.9-5.2 4.3-6.3 1.3-1.1 4.6-2.8 7.2-3.6 2.6-0.9 6.5-1.7 8.7-1.7zm-290.1 116.9c2.5 0 5.6 1.1 7.3 2.6 1.7 1.5 3.4 4.4 3.8 6.4 0.5 2 0 5.4-1 7.5-1 2.1-3 4.7-4.4 5.7-1.7 1.2-4.4 1.6-7 1.1-2.6-0.4-5.4-2.2-7-4.4-1.6-2-2.7-5.5-2.6-8 0-2.7 1.3-5.6 3.3-7.6 2.1-2.2 4.7-3.3 7.6-3.3zm589 21.2c1.5 0 3.8 1 5 2.3 1.2 1.3 2.9 4.1 3.6 6.1 1 2.5 1 4.9 0.1 7.6-0.8 2.4-3 4.8-5.6 6.1-2.4 1.2-5.7 1.8-7.3 1.3-1.8-0.4-3.8-2.7-5.1-5.7-1.2-2.8-1.7-6.6-1.3-8.7 0.4-2 2.3-4.8 4.3-6.3 1.9-1.4 4.7-2.7 6.3-2.7zm-577.3 20c2.4 0 5.2 1.3 7.3 3.3 1.9 1.9 3.3 4.9 3.3 7 0 2-0.9 5-2 6.6-1.4 2.2-3.3 3-6.7 3-3.1 0-5.7-1-7.9-3.3-1.9-1.8-3.4-4.7-3.5-6.5-0.1-1.7 1.2-4.7 2.8-6.6q2.8-3.5 6.7-3.5zm562.7 19.9c2 0 4.2 1.2 5.4 3 1.1 1.7 2 5 2 7.3 0 3.2-1.1 5.2-4 7.7-2.2 1.8-5 3.3-6.3 3.3-1.3 0-3-0.5-3.8-1-0.8-0.6-2.1-2.3-3-4-0.8-1.6-1.5-4.2-1.4-5.7 0-1.6 1.8-4.5 3.9-6.7 2.2-2.3 5.1-3.9 7.2-3.9zm-545.6 16c0.8 0 3.3 0.9 5.4 2 2.2 1.1 4.6 3.2 5.4 4.6 0.7 1.5 1.3 4.9 1.3 7.7 0 2.7-0.9 6.3-2 7.9-1.4 2.2-3.3 3-6.6 3-3.4 0-5.8-1-8.7-4-3-3-3.9-5.1-3.9-8.7 0.1-3.3 1.3-5.9 3.9-8.6 2.1-2.2 4.4-3.9 5.2-3.9zm524.5 19.9q4.6 0 7.3 3c1.8 2 2.6 4.8 2.6 8.6 0 4.7-0.7 6.3-4 9-2.6 2.2-5.7 3.4-9 3.4-3.1 0-5.7-0.8-7-2.2-1.2-1.4-1.9-4.9-1.9-8.8 0-5.6 0.5-7.1 3.7-9.8 2.4-2 5.4-3.2 8.3-3.2zm-24.5 34.6c3.9 0 5.6 0.7 7.1 3 1.1 1.6 2.1 4.4 2.1 6.3 0 1.8-1 4.6-2.1 6.2-1.2 1.6-4 3.5-6.3 4.3-3 1.1-5.4 1.1-7.9 0.1-2.1-0.7-4.3-2.5-5-4-0.8-1.4-1.1-4.4-0.7-6.6 0.4-2.2 2.2-5.2 4.2-6.7 2.1-1.6 5.6-2.6 8.6-2.6zm-30.1 27.9c2.9 0 5.7 1 7.3 2.6 1.7 1.7 2.7 4.5 2.7 7.3 0 3.2-1.2 6-3.7 8.8-2.9 3.3-4.7 4.2-9.4 4.3-4.7 0.2-6.2-0.4-8.4-3.1-2-2.5-2.5-4.5-1.9-8 0.4-2.8 2.3-6 4.8-8.3 2.8-2.5 5.5-3.6 8.6-3.6zm-30.5 25.9c2.9 0.3 6 1.4 7 2.3 0.9 0.9 1.7 3.9 1.7 6.7-0.1 3.6-1.1 6-4 8.9-3.2 3.3-4.9 4-10 4-4.5 0-6.7-0.7-8.9-3-2.3-2.4-2.7-3.9-2-7.6 0.5-2.6 1.8-5.8 3-7.2 1.1-1.3 3.4-3 5-3.6 1.5-0.6 5.2-0.9 8.2-0.5zm-38.2 20.7c0.9-0.1 3.1 0.5 4.9 1.2 1.9 0.7 3.9 2.4 4.6 3.7 0.6 1.3 0.9 3.8 0.6 5.6-0.3 1.8-2.1 5-4 7-2.5 2.6-4.8 3.7-8 3.7-3 0-5.6-1.1-7.8-3.4-2.5-2.5-3.1-4.2-2.5-6.9 0.4-2.1 1.6-4.8 2.7-6.2 1.1-1.4 3.3-3 4.9-3.6 1.6-0.6 3.6-1.1 4.6-1.1zm-41.7 17.2c2.6 0 6 0.6 7.4 1.3 1.5 0.7 3.3 2.8 4 4.6 1 2.5 0.8 4.4-0.6 7.4-1.1 2.1-3.2 4.5-4.7 5.3-1.5 0.7-4.2 1.3-6 1.3-1.8 0-4.9-0.8-7-1.8-2-1-4.1-2.8-4.6-4-0.6-1.2-1-3.1-0.9-4.3 0.1-1.1 1.8-3.8 3.9-5.9 2.8-2.9 5-3.9 8.5-3.9zm-38.3 9.3c3.3 0 5.6 1.1 8.5 4 2.9 2.9 3.8 4.7 3.2 6.9-0.4 1.7-2.5 4.7-4.6 6.7-2.5 2.3-5.4 3.6-7.9 3.6-2.2 0-5.5-1.3-7.5-3-2.4-2.1-3.5-4.3-3.6-7.5-0.1-3.4 0.8-5.3 3.6-7.6 2.3-2 5.4-3.1 8.3-3.1z"/>
</svg>